<svg t="1711351252668" class="icon" viewBox="0 0 1024 1024" version="1.1" xmlns="http://www.w3.org/2000/svg" p-id="1555" width="200" height="200"><path d="M964.59264 203.94496c22.46656 19.39968 49.16736 44.7744 49.16736 150.69184v399.27808l-84.70016-140.68224c-17.16736 24.02816-34.32448 61.78816-54.92736 96.10752 0 0-17.16224 65.22368-161.3312 72.0896 0 0-96.11776 6.86592-75.52-34.3296a1425.27488 1425.27488 0 0 1 82.3808-116.7104c44.63104-58.34752 72.0896-92.68224 72.0896-92.68224s-154.4704 161.33632-199.09632 192.2304c-44.62592 30.88896-154.4704 17.16224-219.68896-27.45856 0 0-48.05632-13.73184 17.16224-51.49184 61.78816-34.3296 308.9408-199.09632 308.9408-199.09632s-350.13632 185.3696-387.89632 181.93408a435.34336 435.34336 0 0 1-212.82304-116.7104c-6.86592-6.86592-3.4304-17.16736 3.4304-24.02816l3.43552-3.4304s288.34304-109.84448 473.70752-192.22528c185.3696-82.3808 314.35776-155.07456 385.66912-93.48608z" fill="#72c1e1" p-id="1556"></path></svg>